<svg width="6476" height="451" viewBox="0 0 6476 451" fill="none" xmlns="http://www.w3.org/2000/svg">
<path d="M4485.36 21.2291C4465.44 24.9528 4444.98 30.1758 4423.59 36.7619C4387.79 47.7816 4351.99 58.8014 4316.19 61.2844C4283.34 63.5625 4245.9 52.5171 4201.74 39.4866C4146.04 23.0507 4079.63 3.45629 3998.22 3.45629C3940.09 3.45629 3890.22 16.7812 3842.2 29.6127C3769.67 48.9939 3701.35 67.2496 3615.1 36.7619C3471.76 -13.9105 3381.84 -12.5112 3263.26 42.9053C3144.68 98.3219 3048.05 87.9707 2969.17 62.7523C2961.53 60.3098 2953.97 57.7502 2946.46 55.2088C2916.52 45.0751 2887.45 35.2326 2857.75 34.2724C2816.14 32.7344 2774.52 46.7088 2732.9 60.6832C2700.24 71.6492 2667.58 82.6152 2634.92 86.0852C2593.61 90.4739 2552.31 82.766 2511 75.058C2478.03 68.9052 2445.06 62.7523 2412.08 62.7523C2377.77 62.7523 2343.46 69.415 2309.15 76.0778C2269.18 83.8387 2229.22 91.5997 2189.25 88.8303C2153.45 86.3495 2117.65 75.3397 2081.85 64.3298C2043.37 52.4967 2004.89 40.6637 1966.42 39.4194C1909.6 37.3196 1860.54 48.8062 1811.61 60.2648C1751.43 74.3551 1691.44 88.403 1617.41 77.095C1577.41 70.984 1539.16 61.1081 1501.43 51.3636C1411.4 28.1187 1324.28 5.62183 1223.11 36.7619C1187.31 47.7816 1151.51 58.8014 1115.71 61.2844C1075.74 64.0563 1035.78 56.2883 995.81 48.5204C923.902 34.5444 866.025 34.0397 793.96 47.4997C752.654 55.2146 711.348 62.9295 670.042 58.5369C637.383 55.0637 604.724 44.088 572.065 33.1122C482.312 2.94887 423.755 2.84857 335.79 35.183C327.691 38.1602 319.282 41.4891 310.698 44.8872C279.92 57.0707 246.897 70.1432 217.858 71.0831C-2.56773 71.0831 -2.50204 75.7493 0.635215 298.591C1.05899 328.692 1.53881 362.774 1.53881 401.363L4485.36 401.362V21.2291Z" fill="#0F3967"/>
<path d="M1990.37 190.229C2010.29 193.953 2030.74 199.176 2052.14 205.762C2087.94 216.782 2123.74 227.801 2159.54 230.284C2192.39 232.562 2229.82 91.5171 2273.98 78.4866C2329.69 62.0506 2396.09 42.4563 2477.5 42.4563C2535.64 42.4563 2585.51 55.7812 2633.53 68.6127C2706.06 87.9939 2774.38 106.25 2860.62 75.7619C3003.96 25.0895 3093.88 26.4888 3212.46 81.9053C3331.05 137.322 3427.68 126.971 3506.55 101.752C3514.19 99.3098 3521.75 96.7502 3529.26 94.2088C3559.2 84.0751 3588.28 74.2326 3617.97 73.2724C3659.59 71.7344 3701.21 85.7088 3742.83 99.6832C3775.49 110.649 3808.15 121.615 3840.81 125.085C3882.11 129.474 3923.42 121.766 3964.72 114.058C3997.7 107.905 4030.67 101.752 4063.64 101.752C4097.95 101.752 4132.26 108.415 4166.57 115.078C4206.54 122.839 4246.51 130.6 4286.47 127.83C4322.27 125.35 4358.08 114.34 4393.88 103.33C4432.35 91.4967 4470.83 79.6637 4509.31 78.4194C4566.13 76.3196 4615.18 87.8062 4664.12 99.2648C4724.29 113.355 4784.29 127.403 4858.31 116.095C4898.31 109.984 4936.56 100.108 4974.3 90.3636C5064.32 67.1187 5151.44 44.6218 5252.61 75.7619C5288.41 86.7816 5324.21 97.8014 5360.01 100.284C5399.98 103.056 5439.95 95.2883 5479.91 87.5204C5551.82 73.5444 5609.7 73.0397 5681.77 86.4997C5723.07 94.2146 5764.38 101.93 5805.68 97.5369C5838.34 94.0637 5871 83.088 5903.66 72.1122C5993.41 41.9489 6051.97 41.8486 6139.93 74.183C6148.03 77.1602 6156.44 80.4891 6165.03 83.8872C6195.8 96.0707 6228.83 109.143 6257.87 110.083C6478.29 110.083 6478.23 114.749 6475.09 337.591C6474.67 367.692 6474.19 401.774 6474.19 440.363L1990.37 440.362V190.229Z" fill="#026CAB"/>
<path d="M1758 70.2291C1777.92 73.9528 1798.37 79.1758 1819.77 85.7619C1855.57 96.7816 1891.37 107.801 1927.17 110.284C1960.02 112.562 1997.45 101.517 2041.61 88.4866C2097.32 72.0506 2163.72 52.4563 2245.13 52.4563C2303.27 52.4563 2353.14 65.7812 2401.16 78.6127C2473.69 97.9939 2542.01 116.25 2628.25 85.7619C2771.6 35.0895 2861.51 36.4888 2980.1 91.9053C3098.68 147.322 3195.31 136.971 3274.18 111.752C3281.82 109.31 3289.38 106.75 3296.89 104.209C3326.83 94.0751 3355.91 84.2326 3385.6 83.2724C3427.22 81.7344 3468.84 95.7088 3510.46 109.683C3543.12 120.649 3575.78 131.615 3608.44 135.085C3649.74 139.474 3691.05 131.766 3732.35 124.058C3765.33 117.905 3798.3 111.752 3831.27 111.752C3865.58 111.752 3899.89 118.415 3934.2 125.078C3974.17 132.839 4014.14 140.6 4054.1 137.83C4089.91 135.35 4125.71 124.34 4161.51 113.33C4199.98 101.497 4238.46 89.6637 4276.94 88.4194C4333.76 86.3196 4382.81 97.8062 4431.75 109.265C4491.92 123.355 4551.92 137.403 4625.94 126.095C4665.95 119.984 4704.19 110.108 4741.93 100.364C4831.95 77.1187 4919.08 54.6218 5020.24 85.7619C5056.04 96.7816 5091.84 107.801 5127.64 110.284C5167.61 113.056 5207.58 105.288 5247.55 97.5204C5319.45 83.5444 5377.33 83.0397 5449.4 96.4997C5490.7 104.215 5532.01 111.93 5573.31 107.537C5605.97 104.064 5638.63 93.088 5671.29 82.1122C5761.04 51.9489 5819.6 51.8486 5907.57 84.183C5915.66 87.1602 5924.07 90.4891 5932.66 93.8872C5963.44 106.071 5996.46 119.143 6025.5 120.083C6245.92 120.083 6245.86 124.749 6242.72 347.591C6242.3 377.692 6241.82 411.774 6241.82 450.363L1758 450.362V70.2291Z" fill="#037CED"/>
</svg>
