<svg width="1800" height="219" viewBox="0 0 1800 219" fill="none" xmlns="http://www.w3.org/2000/svg">
<mask id="path-1-inside-1_32_5288" fill="white">
<path d="M0 0H360V276H0V0Z"/>
</mask>
<path d="M360 0H359V276H360H361V0H360ZM0 276H1V0H0H-1V276H0Z" fill="white" fill-opacity="0.5" mask="url(#path-1-inside-1_32_5288)"/>
<mask id="path-3-inside-2_32_5288" fill="white">
<path d="M360 0H720V276H360V0Z"/>
</mask>
<path d="M720 0H719V276H720H721V0H720Z" fill="white" fill-opacity="0.5" mask="url(#path-3-inside-2_32_5288)"/>
<mask id="path-5-inside-3_32_5288" fill="white">
<path d="M720 0H1080V276H720V0Z"/>
</mask>
<path d="M1080 0H1079V276H1080H1081V0H1080Z" fill="white" fill-opacity="0.5" mask="url(#path-5-inside-3_32_5288)"/>
<mask id="path-7-inside-4_32_5288" fill="white">
<path d="M1080 0H1440V276H1080V0Z"/>
</mask>
<path d="M1440 0H1439V276H1440H1441V0H1440Z" fill="white" fill-opacity="0.5" mask="url(#path-7-inside-4_32_5288)"/>
<mask id="path-9-inside-5_32_5288" fill="white">
<path d="M1440 0H1800V276H1440V0Z"/>
</mask>
<path d="M1800 0H1799V276H1800H1801V0H1800Z" fill="white" fill-opacity="0.5" mask="url(#path-9-inside-5_32_5288)"/>
<g clip-path="url(#clip0_32_5288)">
<path d="M2475.36 196.729C2455.44 200.453 2434.98 205.676 2413.59 212.262C2377.79 223.282 2341.99 234.301 2306.19 236.784C2273.34 239.062 2235.9 228.017 2191.74 214.987C2136.04 198.551 2069.63 178.956 1988.22 178.956C1930.09 178.956 1880.22 192.281 1832.2 205.113C1759.67 224.494 1691.35 242.75 1605.1 212.262C1461.76 161.59 1371.84 162.989 1253.26 218.405C1134.68 273.822 1038.05 263.471 959.172 238.252C951.533 235.81 943.971 233.25 936.463 230.709C906.525 220.575 877.448 210.733 847.755 209.772C806.136 208.234 764.516 222.209 722.897 236.183C690.238 247.149 657.578 258.115 624.919 261.585C583.613 265.974 542.307 258.266 501.001 250.558C468.029 244.405 435.057 238.252 402.085 238.252C367.774 238.252 333.463 244.915 299.152 251.578C259.185 259.339 219.218 267.1 179.251 264.33C143.45 261.85 107.65 250.84 71.8489 239.83C33.3716 227.997 -5.10571 216.164 -43.5833 214.919C-100.401 212.82 -149.456 224.306 -198.392 235.765C-258.568 249.855 -318.562 263.903 -392.586 252.595C-432.59 246.484 -470.836 236.608 -508.574 226.864C-598.596 203.619 -685.72 181.122 -786.887 212.262C-822.688 223.282 -858.489 234.301 -894.289 236.784C-934.256 239.556 -974.223 231.788 -1014.19 224.02C-1086.1 210.044 -1143.97 209.54 -1216.04 223C-1257.35 230.715 -1298.65 238.43 -1339.96 234.037C-1372.62 230.564 -1405.28 219.588 -1437.94 208.612C-1527.69 178.449 -1586.24 178.349 -1674.21 210.683C-1682.31 213.66 -1690.72 216.989 -1699.3 220.387C-1730.08 232.571 -1763.1 245.643 -1792.14 246.583C-2012.57 246.583 -2012.5 251.249 -2009.36 474.091C-2008.94 504.192 -2008.46 538.274 -2008.46 576.863L2475.36 576.862V196.729Z" fill="#0F3967"/>
<path d="M1564.62 144.5V130.281H1574.95V144.5H1573.5V131.512H1566.08V144.5H1564.62ZM1577.66 137.771V137C1577.66 134.741 1578.2 133.009 1579.28 131.805C1580.37 130.6 1581.76 129.998 1583.47 129.998C1585.17 129.998 1586.57 130.6 1587.65 131.805C1588.73 133.009 1589.27 134.741 1589.27 137V137.771C1589.27 140.037 1588.73 141.772 1587.65 142.977C1586.57 144.181 1585.17 144.783 1583.47 144.783C1581.76 144.783 1580.37 144.181 1579.28 142.977C1578.2 141.772 1577.66 140.037 1577.66 137.771ZM1579.13 137.781C1579.13 139.637 1579.53 141.056 1580.32 142.039C1581.12 143.022 1582.17 143.514 1583.47 143.514C1584.77 143.514 1585.82 143.022 1586.6 142.039C1587.4 141.056 1587.79 139.637 1587.79 137.781V136.99C1587.79 135.141 1587.4 133.725 1586.6 132.742C1585.82 131.759 1584.77 131.268 1583.47 131.268C1582.17 131.268 1581.12 131.759 1580.32 132.742C1579.53 133.725 1579.13 135.141 1579.13 136.99V137.781ZM1602.77 147.322V144.5H1591.75V147.322H1590.46V143.27H1604.05V147.322H1602.77ZM1593.34 130.281H1602.27V144.5H1600.81V131.512H1594.63L1594.24 138.484C1594.16 139.819 1594.04 140.877 1593.88 141.658C1593.72 142.433 1593.54 143.058 1593.32 143.533H1591.74C1592.07 143.032 1592.32 142.384 1592.49 141.59C1592.67 140.789 1592.79 139.744 1592.87 138.455L1593.34 130.281ZM1605.93 144.5V130.281H1610.38C1611.9 130.281 1613.05 130.669 1613.84 131.443C1614.63 132.212 1615.02 133.237 1615.02 134.52C1615.02 135.796 1614.63 136.827 1613.84 137.615C1613.05 138.396 1611.9 138.787 1610.38 138.787H1607.38V144.5H1605.93ZM1607.38 137.557H1610.37C1611.55 137.557 1612.38 137.267 1612.85 136.688C1613.33 136.108 1613.57 135.385 1613.57 134.52C1613.57 133.654 1613.33 132.938 1612.85 132.371C1612.38 131.798 1611.55 131.512 1610.37 131.512H1607.38V137.557ZM1616.6 137.771V137C1616.6 134.741 1617.14 133.009 1618.22 131.805C1619.31 130.6 1620.71 129.998 1622.41 129.998C1624.12 129.998 1625.51 130.6 1626.59 131.805C1627.67 133.009 1628.21 134.741 1628.21 137V137.771C1628.21 140.037 1627.67 141.772 1626.59 142.977C1625.51 144.181 1624.12 144.783 1622.41 144.783C1620.71 144.783 1619.31 144.181 1618.22 142.977C1617.14 141.772 1616.6 140.037 1616.6 137.771ZM1618.08 137.781C1618.08 139.637 1618.48 141.056 1619.27 142.039C1620.06 143.022 1621.11 143.514 1622.41 143.514C1623.72 143.514 1624.76 143.022 1625.55 142.039C1626.34 141.056 1626.74 139.637 1626.74 137.781V136.99C1626.74 135.141 1626.34 133.725 1625.55 132.742C1624.76 131.759 1623.72 131.268 1622.41 131.268C1621.11 131.268 1620.06 131.759 1619.27 132.742C1618.48 133.725 1618.08 135.141 1618.08 136.99V137.781ZM1630.93 144.5V130.281H1639.08V131.512H1632.38V136.15H1635.38C1636.9 136.15 1638.05 136.531 1638.84 137.293C1639.63 138.055 1640.02 139.061 1640.02 140.311C1640.02 141.574 1639.63 142.589 1638.84 143.357C1638.05 144.119 1636.9 144.5 1635.38 144.5H1630.93ZM1632.38 137.381V143.27H1635.37C1636.55 143.27 1637.38 142.99 1637.85 142.43C1638.33 141.863 1638.57 141.157 1638.57 140.311C1638.57 139.464 1638.33 138.764 1637.85 138.211C1637.38 137.658 1636.55 137.381 1635.37 137.381H1632.38ZM1642.26 144.5V130.281H1643.71V136.551H1651.28V130.281H1652.74V144.5H1651.28V137.771H1643.71V144.5H1642.26ZM1655.99 144.5V130.281H1664.48V131.512H1657.44V136.551H1663.55V137.781H1657.44V143.27H1664.59V144.5H1655.99ZM1666.79 144.5V130.281H1675.29V131.512H1668.24V136.551H1674.35V137.781H1668.24V143.27H1675.39V144.5H1666.79Z" fill="white"/>
</g>
<rect x="1523.5" y="107" width="193" height="62" stroke="white"/>
<defs>
<clipPath id="clip0_32_5288">
<rect x="1523" y="106.5" width="194" height="63" fill="white"/>
</clipPath>
</defs>
</svg>
