<svg width="80" height="32" viewBox="0 0 80 32" fill="none" xmlns="http://www.w3.org/2000/svg">
<path d="M15.6621 0.66333V4.13471H9.9752V14.8654H6.50382V4.13471H0.820312V0.66333H15.6621Z" fill="black"/>
<path d="M30.294 27.6097C30.294 27.6838 30.2973 27.7982 30.294 27.9329C30.2839 28.3066 30.2435 29.9565 29.5296 30.8386C29.3983 31.0002 28.9876 31.7578 26.9 31.7578C25.4219 31.7578 23.9472 31.7578 22.4691 31.7544C21.9909 31.7477 21.5162 31.7376 21.0381 31.7309C19.8125 31.7309 18.9337 31.4245 18.4084 30.8117C17.8798 30.2023 17.6172 29.209 17.6172 27.8454C17.6206 23.6568 17.6239 19.4784 17.6239 15.2932H17.6172V7.14502H21.1054V15.2932H21.102V26.2662C21.0852 26.6434 21.0953 26.9632 21.1088 27.2056C21.1323 27.6501 21.166 27.8117 21.2872 27.9329C21.4724 28.1181 21.7283 28.1686 21.7283 28.1686C21.7822 28.1787 21.8293 28.1821 21.8596 28.1854H22.5297C22.5297 28.1854 24.4421 28.1956 26.0212 28.172C26.1896 28.172 26.4892 28.1585 26.6509 27.9599C26.8125 27.7578 26.8226 27.3908 26.8226 27.3572C26.8226 27.3066 26.8192 27.2696 26.8192 27.1013C26.8158 26.9666 26.8192 26.8588 26.8192 26.7847C26.8125 25.4952 26.8057 24.2056 26.799 22.9161H24.166C26.2098 21.145 28.2502 19.374 30.294 17.603C30.2973 18.2629 30.3041 18.9228 30.3041 19.5861C30.3041 20.8925 30.3041 22.1888 30.294 23.475V27.6097Z" fill="#007CF7"/>
<path d="M21.0886 0.66333H17.6172V4.2492H21.0886V0.66333Z" fill="#007CF7"/>
<path d="M60.1866 0.663574V12.7713H56.7825V10.6165H47.9441V28.1047C47.9441 29.3774 47.6377 30.3134 47.0249 30.9127C46.4122 31.512 45.4627 31.8117 44.1798 31.8117C43.3145 31.8117 42.7556 31.6737 42.5872 31.6232C42.2943 31.5289 41.8566 31.3875 41.4222 31.0137C41.163 30.7949 40.998 30.576 40.8936 30.4346C40.6916 30.1552 40.567 29.9127 40.3313 29.4413C40.2101 29.1989 40.1159 28.9935 40.0519 28.8521C38.9239 26.3908 37.7994 23.9296 36.6714 21.4683C36.6579 21.438 36.6411 21.3942 36.6142 21.3404C36.594 21.3033 36.5805 21.2797 36.5637 21.2562C36.5064 21.172 36.429 21.135 36.3886 21.1147C36.3448 21.0912 36.2707 21.0643 36.1798 21.0575C36.1394 21.0575 36.0788 21.0575 36.0081 21.0743C35.8701 21.1114 35.7859 21.1956 35.7556 21.2259C35.5536 21.4279 35.5704 21.7343 35.5738 21.7814V31.7478H32.1562V21.3101C32.1562 20.0407 32.4627 19.1046 33.0721 18.502C33.6849 17.9026 34.6445 17.603 35.9509 17.603C36.4526 17.603 36.897 17.6501 37.2842 17.7444C37.5233 17.8016 37.8667 17.8993 38.2707 18.1316C38.4324 18.2259 38.7758 18.4312 39.0957 18.8016C39.3044 19.0407 39.4155 19.2494 39.5502 19.5087C39.6714 19.7309 39.7051 19.8353 39.9542 20.3808C40.0485 20.5895 40.126 20.7579 40.1798 20.869C41.7825 24.374 42.3818 25.6804 42.6007 26.1551C42.6478 26.2562 42.9239 26.8555 43.2977 27.6636C43.328 27.7343 43.4155 27.9195 43.4458 27.9902C43.4492 27.9936 43.4525 28.0003 43.4559 28.0104C43.4828 28.0609 43.5401 28.1653 43.6546 28.2427C43.7522 28.3101 43.8465 28.3269 43.8802 28.3303C43.9138 28.337 43.998 28.3437 44.099 28.3168C44.1563 28.3033 44.2 28.2797 44.2135 28.2696C44.2707 28.2393 44.3078 28.2057 44.328 28.1855C44.3414 28.172 44.365 28.1518 44.3886 28.1181C44.3953 28.108 44.4088 28.0912 44.4256 28.0643C44.4256 28.0643 44.4492 28.0238 44.466 27.97C44.4862 27.9127 44.5098 27.7949 44.5165 27.6366V26.1653H44.5031V0.663574H47.9441V7.14506H56.7825V0.663574H60.1866Z" fill="black"/>
<path d="M76.9272 0.66333V4.13471H71.2403V12.7744H67.7689V4.13471H62.082V0.66333H76.9272Z" fill="black"/>
<path d="M37.9292 5.62363C37.8989 5.54619 37.8551 5.4418 37.7911 5.32396C37.7305 5.21285 37.6059 4.994 37.377 4.78862C37.2187 4.6472 37.0807 4.57314 36.9494 4.50243C36.8686 4.45866 36.5925 4.31387 36.1951 4.22296C36.0032 4.17919 35.8248 4.16235 35.7507 4.15562C35.6497 4.14552 35.5622 4.13878 35.4982 4.13542C34.9965 4.13542 34.4914 4.13542 33.9898 4.13542C33.4746 4.13542 32.9595 4.13542 32.4477 4.13542C32.377 4.13542 32.2591 4.1287 32.1143 4.1287C31.9763 4.1287 31.8719 4.13542 31.8484 4.13542C31.6935 4.14215 31.2995 4.14552 30.3029 4.13542C29.8416 4.11521 29.478 4.19602 29.2558 4.26336C28.6834 4.43508 28.1379 4.79199 27.9157 5.13206C27.7271 5.42162 27.6127 5.79874 27.6059 5.81894C27.5251 6.09503 27.5016 6.34081 27.4982 6.51589C27.478 7.61017 27.4881 7.9839 27.4881 7.9839C27.4948 8.40814 27.4982 8.6876 27.4982 9.07143C27.4982 9.7583 27.4847 9.96707 27.5622 10.3038C27.579 10.3677 27.6531 10.6741 27.8416 11.0277C28.1749 11.664 28.6531 12.058 28.9763 12.2768C28.9763 12.2768 29.68 12.7145 30.5015 12.7482C30.5117 12.7482 30.579 12.7482 30.6396 12.755C30.7103 12.755 30.7776 12.7617 30.8585 12.7617C30.8921 12.7617 30.9325 12.7617 31.0066 12.7651C31.0504 12.7651 31.111 12.7651 31.1514 12.7684H34.9931C35.0672 12.7718 35.1682 12.7752 35.2861 12.7684C35.2861 12.7684 35.3231 12.7684 35.3601 12.7617C35.5184 12.7449 35.7473 12.7045 36.0908 12.5496C36.3366 12.4385 36.717 12.2667 37.1042 11.8964C37.3601 11.6539 37.5319 11.4082 37.6362 11.2364C37.6733 11.1758 37.7036 11.122 37.7238 11.0849C37.7541 11.0311 37.781 10.9738 37.8113 10.9166C37.8349 10.8694 37.8551 10.8189 37.8753 10.7752C37.8955 10.7213 37.9157 10.6708 37.9359 10.6169C37.781 10.6169 37.6261 10.6169 37.4713 10.6169C36.111 10.6169 34.7473 10.6169 33.3871 10.6169V7.14552H41.5723C41.5723 7.6472 41.5723 8.05461 41.5723 8.32734C41.5756 9.01758 41.5824 9.28357 41.5723 9.75495C41.5622 10.2398 41.542 10.6236 41.5319 10.7179C41.4746 11.2903 41.2053 13.3206 39.6194 14.664C38.717 15.4283 37.6093 15.7819 37.4409 15.8358C36.8079 16.0344 36.1682 16.1186 35.7541 16.1725C35.2052 16.2465 34.7372 16.2735 34.3938 16.2869H31.4477C29.0066 16.2869 27.1581 15.7246 25.9022 14.6001C24.6497 13.4755 24.0234 11.8896 24.0234 9.84249V7.11186C24.0234 5.06472 24.6497 3.47886 25.9022 2.35428C27.1581 1.2297 29.0066 0.667407 31.4477 0.667407H34.3938C35.5925 0.653939 36.5352 0.849231 37.1648 1.03105C37.4746 1.12196 37.8281 1.22297 38.2659 1.43172C38.6531 1.61691 39.6059 2.08492 40.4039 3.13206C41.1379 4.09165 41.3568 5.0445 41.4409 5.41487C41.4611 5.50915 41.478 5.58661 41.4847 5.64048C40.2995 5.63711 39.1143 5.63036 37.9258 5.627L37.9292 5.62363Z" fill="black"/>
<path d="M7.33092 28.1452C7.03126 28.1452 6.8225 28.0745 6.70129 27.933C6.58345 27.7916 6.52285 27.5492 6.52285 27.2058C6.51275 23.0879 6.50264 18.9802 6.49254 14.8657H3.03799C3.03799 19.1923 3.03462 23.5155 3.03125 27.8455C3.03125 29.2091 3.29389 30.2024 3.82251 30.8118C4.34776 31.4246 5.22655 31.731 6.45214 31.731C9.55315 31.731 12.6508 31.7277 15.7518 31.7243V28.1384C12.9471 28.1384 10.139 28.1418 7.33092 28.1452Z" fill="black"/>
<path d="M53.3275 19.391C53.3275 20.0442 53.3275 20.6974 53.3208 21.3472H60.1726V24.8186H53.3208C53.3242 25.6199 53.3242 26.4213 53.3275 27.226C53.3275 27.5694 53.3881 27.8118 53.506 27.9533C53.6272 28.0947 53.8359 28.1654 54.1356 28.1654C56.9437 28.162 59.7518 28.1586 62.5565 28.1586V31.7445C59.4555 31.7479 56.3578 31.7512 53.2568 31.7512C52.0312 31.7512 51.1524 31.4448 50.6272 30.832C50.0986 30.2226 49.8359 29.2294 49.8359 27.8657C49.8393 26.3472 49.8393 24.8287 49.8393 23.3102C49.8393 21.7916 49.8393 20.2731 49.8359 18.7512C49.8359 17.3876 50.0986 16.3943 50.6272 15.7849C51.1524 15.1721 52.0312 14.8657 53.2568 14.8657C56.3578 14.8657 59.4555 14.8691 62.5565 14.8725V18.4583C59.7518 18.4583 56.9437 18.4549 54.1356 18.4515C53.8359 18.4515 53.6272 18.5223 53.506 18.6637C53.3881 18.8051 53.3275 19.0475 53.3275 19.391Z" fill="black"/>
<path d="M79.1737 25.5088V26.4886C79.1737 30.0374 77.1669 31.8118 73.1568 31.8118H70.2915C68.3555 31.8118 66.9009 31.3169 65.9144 30.3202C65.0188 29.4111 64.5306 28.1149 64.4531 26.4381H68.0727C68.1568 26.9566 68.3454 27.364 68.645 27.6637C69.0659 28.0879 69.7562 28.2967 70.7225 28.2967H72.5642C73.6585 28.2967 74.4161 28.1418 74.837 27.8287C75.2511 27.5223 75.4632 27.0509 75.47 26.4045C75.4666 26.3506 75.4632 26.2765 75.443 26.1856C75.4329 26.1351 75.3824 25.9229 75.2141 25.7041C75.14 25.6064 75.0693 25.5458 75.0524 25.529C74.9514 25.4448 74.8538 25.3876 74.7494 25.3438C74.3992 25.189 73.9817 25.1384 73.8774 25.1283C73.5777 25.0947 73.3858 25.0913 73.14 25.0778C73.1232 25.0778 72.7629 25.0543 72.0423 25.0038C70.1838 24.8758 70.1972 24.8691 69.6518 24.8388C69.4127 24.8253 69.177 24.8085 68.9413 24.795C68.6821 24.7782 68.4464 24.7681 68.1299 24.7276C67.8471 24.694 67.7157 24.6637 67.608 24.6334C67.5575 24.6166 67.4228 24.5762 67.2444 24.4987C67.1097 24.4381 66.7831 24.2799 66.4228 23.9869C66.0221 23.6603 65.773 23.327 65.6518 23.1519C65.0221 22.2563 64.9178 21.1182 64.9043 20.5795C64.9009 20.5223 64.9009 20.4751 64.9009 20.4313V19.8455C64.9009 19.1317 64.9986 18.4819 65.2006 17.896C65.4026 17.3102 65.7124 16.7883 66.1333 16.3236C66.5508 15.8623 67.1232 15.5021 67.8572 15.2462C68.5844 14.9937 69.4396 14.8657 70.4194 14.8657H72.2713C73.3555 14.8657 74.2578 14.9667 74.9683 15.1755C75.6787 15.3808 76.2275 15.7074 76.6046 16.1452C76.9885 16.5862 77.2511 17.0879 77.3925 17.6469C77.5373 18.2058 77.6114 18.9028 77.6114 19.7411V20.4145H74.0356V19.9263C74.0356 19.3876 73.8807 18.997 73.571 18.7512C73.2612 18.5021 72.6753 18.3809 71.8168 18.3809H70.9178C70.7056 18.391 70.5238 18.401 70.3892 18.4111C69.9312 18.4482 69.7831 18.4852 69.672 18.5189C69.5878 18.5458 69.4834 18.5795 69.3622 18.6469C69.2612 18.7007 69.0356 18.8287 68.8504 19.098C68.6753 19.3539 68.6349 19.5997 68.6248 19.6637C68.6147 19.7142 68.6114 19.7681 68.6114 20.0374V20.0745C68.6114 20.098 68.6114 20.1384 68.6147 20.1957C68.6147 20.2125 68.6147 20.2462 68.6215 20.2866C68.6282 20.3337 68.6349 20.4112 68.6551 20.492C68.6922 20.6334 68.7595 20.7344 68.81 20.8186C68.8168 20.832 68.8336 20.8556 68.8538 20.8859C68.8942 20.9499 68.9649 21.0408 69.0726 21.125C69.2949 21.3034 69.8471 21.3741 69.9514 21.3876C70.3689 21.4347 70.6821 21.4516 70.6821 21.4516C71.0962 21.4718 71.507 21.5189 71.9211 21.5492C72.9615 21.63 73.8471 21.7277 74.1602 21.7613C75.3588 21.8994 75.7562 21.9869 76.0255 22.0509C76.5508 22.1822 76.8134 22.2462 77.1535 22.4179C77.9245 22.8152 78.3588 23.391 78.5508 23.6502C78.7966 23.9802 78.9178 24.2428 78.9784 24.3909C79.1198 24.7377 79.1535 24.9903 79.1636 25.0543C79.1838 25.2395 79.1804 25.3943 79.1737 25.5088Z" fill="black"/>
</svg>
