<svg width="211" height="84" viewBox="0 0 211 84" fill="none" xmlns="http://www.w3.org/2000/svg">
<path d="M40.5307 0V9.28801H25.315V37.9989H16.027V9.28801H0.820312V0H40.5307Z" fill="white"/>
<path d="M79.6756 72.097C79.6756 72.2952 79.6846 72.6014 79.6756 72.9618C79.6486 73.9618 79.5405 78.376 77.6306 80.7363C77.2793 81.1688 76.1802 83.1957 70.5948 83.1957C66.64 83.1957 62.6942 83.1957 58.7394 83.1867C57.4601 83.1687 56.1899 83.1417 54.9107 83.1237C51.6315 83.1237 49.2802 82.3039 47.8749 80.6643C46.4605 79.0337 45.7578 76.3761 45.7578 72.7275C45.7668 61.5207 45.7758 50.3409 45.7758 39.143H45.7578V17.3418H55.0909V39.143H55.0819V68.5025C55.0368 69.5115 55.0638 70.3672 55.0998 71.0159C55.1629 72.205 55.253 72.6375 55.5773 72.9618C56.0728 73.4573 56.7575 73.5925 56.7575 73.5925C56.9016 73.6195 57.0277 73.6284 57.1088 73.6374H58.9015C58.9015 73.6374 64.0185 73.6645 68.2436 73.6015C68.694 73.6015 69.4958 73.5654 69.9282 73.0339C70.3606 72.4934 70.3876 71.5114 70.3876 71.4213C70.3876 71.2862 70.3786 71.1871 70.3786 70.7366C70.3696 70.3763 70.3786 70.088 70.3786 69.8898C70.3606 66.4394 70.3426 62.9891 70.3246 59.5387H63.2798C68.748 54.8001 74.2073 50.0616 79.6756 45.323C79.6846 47.0887 79.7026 48.8545 79.7026 50.6292C79.7026 54.1246 79.7026 57.5929 79.6756 61.0342V72.097Z" fill="#007CF7"/>
<path d="M55.0536 0H45.7656V9.59434H55.0536V0Z" fill="#007CF7"/>
<path d="M159.662 0V32.3954H150.554V26.6299H126.906V73.4213C126.906 76.8266 126.086 79.331 124.447 80.9345C122.807 82.5381 120.266 83.3399 116.834 83.3399C114.519 83.3399 113.023 82.9706 112.573 82.8355C111.789 82.5832 110.618 82.2048 109.456 81.2048C108.762 80.6193 108.321 80.0337 108.042 79.6554C107.501 78.9076 107.168 78.2589 106.537 76.9977C106.213 76.3491 105.961 75.7996 105.789 75.4212C102.772 68.8358 99.7627 62.2505 96.7448 55.6651C96.7087 55.584 96.6636 55.4669 96.5916 55.3227C96.5375 55.2236 96.5015 55.1606 96.4565 55.0975C96.3033 54.8723 96.0961 54.7732 95.988 54.7191C95.8709 54.6561 95.6727 54.5841 95.4295 54.566C95.3214 54.566 95.1592 54.566 94.97 54.611C94.6007 54.7101 94.3754 54.9354 94.2944 55.0165C93.7538 55.557 93.7989 56.3767 93.8079 56.5028V83.1688H84.6641V55.2417C84.6641 51.8454 85.4839 49.3409 87.1145 47.7283C88.754 46.1248 91.3215 45.3231 94.8169 45.3231C96.1592 45.3231 97.3484 45.4491 98.3844 45.7014C99.024 45.8545 99.9429 46.1158 101.024 46.7374C101.456 46.9896 102.375 47.5392 103.231 48.5301C103.79 49.1697 104.087 49.7283 104.447 50.4219C104.772 51.0165 104.862 51.2959 105.528 52.7553C105.78 53.3138 105.988 53.7642 106.132 54.0615C110.42 63.4396 112.024 66.935 112.609 68.2052C112.735 68.4754 113.474 70.0791 114.474 72.2412C114.555 72.4304 114.789 72.9258 114.87 73.115C114.879 73.124 114.888 73.142 114.897 73.169C114.969 73.3041 115.123 73.5835 115.429 73.7907C115.69 73.9708 115.942 74.0159 116.032 74.0249C116.122 74.0429 116.348 74.0609 116.618 73.9888C116.771 73.9528 116.888 73.8897 116.924 73.8627C117.077 73.7816 117.176 73.6915 117.231 73.6375C117.267 73.6014 117.33 73.5474 117.393 73.4574C117.411 73.4303 117.447 73.3853 117.492 73.3132C117.492 73.3132 117.555 73.205 117.6 73.0609C117.654 72.9078 117.717 72.5925 117.735 72.1691V68.2322H117.699V0H126.906V17.3418H150.554V0H159.662Z" fill="white"/>
<path d="M204.454 0V9.28802H189.238V32.4044H179.95V9.28802H164.734V0H204.454Z" fill="white"/>
<path d="M100.104 13.2704C100.023 13.0632 99.9062 12.7839 99.735 12.4686C99.5729 12.1713 99.2395 11.5858 98.6269 11.0363C98.2035 10.6579 97.8342 10.4597 97.4829 10.2706C97.2667 10.1534 96.5279 9.76605 95.4649 9.52281C94.9514 9.4057 94.474 9.36064 94.2758 9.34262C94.0055 9.3156 93.7713 9.29758 93.6001 9.28857C92.2578 9.28857 90.9065 9.28857 89.5642 9.28857C88.1858 9.28857 86.8076 9.28857 85.4382 9.28857C85.249 9.28857 84.9337 9.27059 84.5463 9.27059C84.177 9.27059 83.8977 9.28857 83.8347 9.28857C83.4203 9.30659 82.3662 9.3156 79.6996 9.28857C78.4654 9.23452 77.4925 9.45074 76.8979 9.63091C75.3665 10.0904 73.9071 11.0453 73.3125 11.9552C72.808 12.7299 72.5017 13.7389 72.4837 13.793C72.2675 14.5317 72.2044 15.1893 72.1954 15.6578C72.1414 18.5856 72.1684 19.5856 72.1684 19.5856C72.1864 20.7207 72.1954 21.4684 72.1954 22.4954C72.1954 24.3332 72.1594 24.8917 72.3666 25.7926C72.4116 25.9638 72.6098 26.7836 73.1143 27.7295C74.0061 29.4322 75.2854 30.4861 76.1503 31.0717C76.1503 31.0717 78.0331 32.2429 80.2312 32.333C80.2582 32.333 80.4383 32.333 80.6005 32.351C80.7897 32.351 80.9699 32.369 81.1861 32.369C81.2762 32.369 81.3843 32.369 81.5825 32.378C81.6996 32.378 81.8617 32.3781 81.9698 32.3871H92.2488C92.447 32.3961 92.7173 32.4051 93.0326 32.3871C93.0326 32.3871 93.1316 32.387 93.2307 32.369C93.6541 32.324 94.2667 32.2159 95.1856 31.8015C95.8432 31.5042 96.8612 31.0447 97.8972 30.0537C98.5819 29.4051 99.0413 28.7475 99.3206 28.288C99.4197 28.1259 99.5008 27.9818 99.5549 27.8827C99.6359 27.7386 99.708 27.5854 99.7891 27.4323C99.8521 27.3061 99.9062 27.171 99.9603 27.0538C100.014 26.9097 100.068 26.7746 100.122 26.6305C99.708 26.6305 99.2936 26.6305 98.8792 26.6305C95.2397 26.6305 91.5912 26.6305 87.9516 26.6305V17.3424H109.852C109.852 18.6847 109.852 19.7748 109.852 20.5045C109.861 22.3513 109.879 23.0629 109.852 24.3242C109.825 25.6214 109.771 26.6484 109.744 26.9007C109.591 28.4321 108.87 33.8644 104.627 37.4589C102.212 39.5039 99.2485 40.4499 98.7981 40.594C97.1045 41.1255 95.3928 41.3508 94.2847 41.4949C92.8163 41.6931 91.5641 41.7651 90.6452 41.8012H82.7626C76.2313 41.8012 71.2856 40.2967 67.9253 37.2878C64.5741 34.2788 62.8984 30.0357 62.8984 24.5584V17.2523C62.8984 11.775 64.5741 7.53189 67.9253 4.52297C71.2856 1.51405 76.2313 0.00957657 82.7626 0.00957657H90.6452C93.8523 -0.0264584 96.3747 0.496064 98.0594 0.982536C98.8882 1.22577 99.8341 1.49604 101.005 2.05458C102.041 2.55006 104.591 3.80227 106.726 6.60399C108.69 9.17148 109.275 11.7209 109.5 12.7119C109.554 12.9641 109.6 13.1714 109.618 13.3155C106.446 13.3065 103.275 13.2884 100.095 13.2794L100.104 13.2704Z" fill="white"/>
<path d="M18.2346 73.53C17.4328 73.53 16.8743 73.3408 16.55 72.9624C16.2347 72.584 16.0725 71.9354 16.0725 71.0165C16.0455 59.9988 16.0185 49.0082 15.9914 37.9995H6.7485C6.7485 49.5758 6.73948 61.1429 6.73047 72.7282C6.73047 76.3767 7.43318 79.0343 8.84755 80.6649C10.2529 82.3045 12.6042 83.1243 15.8833 83.1243C24.1804 83.1243 32.4684 83.1153 40.7654 83.1063V73.5119C33.2611 73.5119 25.7479 73.5209 18.2346 73.53Z" fill="white"/>
<path d="M141.303 50.1072C141.303 51.8549 141.303 53.6027 141.285 55.3413H159.618V64.6293H141.285C141.294 66.7734 141.294 68.9175 141.303 71.0706C141.303 71.9895 141.465 72.6381 141.78 73.0165C142.105 73.3949 142.663 73.5841 143.465 73.5841C150.978 73.5751 158.492 73.566 165.996 73.566V83.1604C157.699 83.1694 149.411 83.1783 141.114 83.1783C137.835 83.1783 135.483 82.3585 134.078 80.7189C132.664 79.0883 131.961 76.4308 131.961 72.7823C131.97 68.7193 131.97 64.6564 131.97 60.5934C131.97 56.5305 131.97 52.4675 131.961 48.3955C131.961 44.747 132.664 42.0895 134.078 40.4589C135.483 38.8193 137.835 37.9995 141.114 37.9995C149.411 37.9995 157.699 38.0085 165.996 38.0175V47.6118C158.492 47.6118 150.978 47.6027 143.465 47.5937C142.663 47.5937 142.105 47.7829 141.78 48.1613C141.465 48.5397 141.303 49.1883 141.303 50.1072Z" fill="white"/>
<path d="M210.464 66.4761V69.0977C210.464 78.5929 205.095 83.3405 194.366 83.3405H186.699C181.519 83.3405 177.627 82.0162 174.988 79.3496C172.592 76.9172 171.285 73.4489 171.078 68.9626H180.762C180.988 70.3499 181.492 71.44 182.294 72.2418C183.42 73.3769 185.267 73.9354 187.852 73.9354H192.78C195.708 73.9354 197.735 73.521 198.861 72.6832C199.969 71.8634 200.537 70.6022 200.555 68.8725C200.546 68.7284 200.537 68.5301 200.482 68.2869C200.455 68.1518 200.32 67.5842 199.87 66.9986C199.672 66.7374 199.483 66.5752 199.438 66.5301C199.167 66.3049 198.906 66.1518 198.627 66.0347C197.69 65.6203 196.573 65.4852 196.293 65.4582C195.492 65.3681 194.978 65.359 194.321 65.323C194.276 65.323 193.312 65.26 191.384 65.1248C186.411 64.7825 186.447 64.7645 184.988 64.6834C184.348 64.6474 183.717 64.6023 183.087 64.5663C182.393 64.5212 181.762 64.4942 180.916 64.3861C180.159 64.296 179.808 64.215 179.519 64.1339C179.384 64.0888 179.024 63.9807 178.546 63.7735C178.186 63.6114 177.312 63.1879 176.348 62.4042C175.276 61.5303 174.61 60.6385 174.285 60.17C172.601 57.7737 172.321 54.7287 172.285 53.2873C172.276 53.1342 172.276 53.008 172.276 52.8909V51.3234C172.276 49.4135 172.538 47.6749 173.078 46.1074C173.619 44.5399 174.447 43.1435 175.573 41.9003C176.691 40.6661 178.222 39.7022 180.186 39.0175C182.132 38.3418 184.42 37.9995 187.042 37.9995H191.996C194.897 37.9995 197.311 38.2697 199.212 38.8282C201.113 39.3778 202.582 40.2516 203.59 41.4228C204.617 42.6029 205.32 43.9453 205.699 45.4407C206.086 46.9362 206.284 48.801 206.284 51.0442V52.8459H196.717V51.5396C196.717 50.0982 196.302 49.0532 195.474 48.3955C194.645 47.7289 193.077 47.4046 190.78 47.4046H188.375C187.807 47.4316 187.321 47.4586 186.96 47.4856C185.735 47.5847 185.339 47.6839 185.042 47.774C184.816 47.846 184.537 47.9361 184.213 48.1163C183.943 48.2605 183.339 48.6028 182.843 49.3235C182.375 50.0081 182.267 50.6658 182.24 50.837C182.213 50.9721 182.204 51.1162 182.204 51.8369V51.936C182.204 51.9991 182.204 52.1072 182.213 52.2603C182.213 52.3054 182.213 52.3955 182.231 52.5036C182.249 52.6297 182.267 52.8369 182.321 53.0531C182.42 53.4315 182.6 53.7017 182.735 53.9269C182.753 53.9629 182.798 54.0261 182.852 54.1072C182.961 54.2783 183.15 54.5215 183.438 54.7467C184.033 55.2242 185.51 55.4134 185.789 55.4494C186.906 55.5756 187.744 55.6206 187.744 55.6206C188.852 55.6746 189.951 55.8008 191.059 55.8818C193.843 56.0981 196.212 56.3593 197.05 56.4494C200.257 56.8188 201.32 57.053 202.041 57.2241C203.446 57.5755 204.149 57.7466 205.059 58.2061C207.122 59.2691 208.284 60.8096 208.798 61.5033C209.455 62.3862 209.779 63.0888 209.942 63.4852C210.32 64.4131 210.41 65.0888 210.437 65.26C210.491 65.7555 210.482 66.1698 210.464 66.4761Z" fill="white"/>
</svg>
