<svg width="276" height="34" viewBox="0 0 276 34" fill="none" xmlns="http://www.w3.org/2000/svg">
<path d="M26.325 0.675002V6.66H16.695V32.715H9.63V6.66H0V0.675002H26.325Z" fill="#F7F7F7"/>
<path d="M37.0948 0.675002V32.715H30.0298V0.675002H37.0948Z" fill="#F7F7F7"/>
<path d="M71.8313 15.39V32.715H67.3763L66.7013 29.07C64.3013 32.01 61.0913 33.48 57.0713 33.48C52.6012 33.48 48.9713 31.935 46.1813 28.845C43.3913 25.755 41.9963 21.75 41.9963 16.83C41.9963 11.88 43.4663 7.845 46.4062 4.725C49.3462 1.575 53.1263 0 57.7463 0C61.4062 0 64.4963 1.035 67.0163 3.105C69.5362 5.145 71.0062 7.845 71.4262 11.205H64.6312C64.3012 9.525 63.5213 8.22 62.2913 7.29C61.0613 6.36 59.5163 5.895 57.6562 5.895C54.9863 5.895 52.8862 6.87 51.3563 8.82C49.8263 10.74 49.0612 13.41 49.0612 16.83C49.0612 20.31 49.8263 23.025 51.3563 24.975C52.9163 26.895 55.0912 27.855 57.8812 27.855C60.0712 27.855 61.8713 27.195 63.2812 25.875C64.6912 24.525 65.4412 22.77 65.5312 20.61H58.3763V15.39H71.8313Z" fill="#F7F7F7"/>
<path d="M104.582 0.675002V32.715H97.5618V18.9H84.4668V32.715H77.4468V0.675002H84.4668V12.735H97.5618V0.675002H104.582Z" fill="#F7F7F7"/>
<path d="M134.606 0.675002V6.66H124.976V32.715H117.911V6.66H108.281V0.675002H134.606Z" fill="#F7F7F7"/>
<path d="M171.2 26.685V32.715H148.52V0.675002H155.54V26.685H171.2Z" fill="#F7F7F7"/>
<path d="M182.26 0.675002V32.715H175.195V0.675002H182.26Z" fill="#F7F7F7"/>
<path d="M188.466 32.715V0.675002H195.621L208.806 22.14V0.675002H215.556V32.715H208.536L195.261 11.205V32.715H188.466Z" fill="#F7F7F7"/>
<path d="M245.851 0.675002V6.435H228.796V13.41H244.456V18.945H228.796V26.82H246.166V32.715H221.821V0.675002H245.851Z" fill="#F7F7F7"/>
<path d="M274.715 10.215H268.055C267.785 7.035 265.76 5.445 261.98 5.445C260.36 5.445 259.085 5.775 258.155 6.435C257.255 7.065 256.805 7.95 256.805 9.09C256.805 9.48 256.865 9.825 256.985 10.125C257.105 10.425 257.33 10.71 257.66 10.98C257.99 11.22 258.32 11.43 258.65 11.61C258.98 11.76 259.46 11.94 260.09 12.15C260.75 12.33 261.335 12.495 261.845 12.645C262.385 12.795 263.135 12.99 264.095 13.23C265.055 13.47 265.895 13.695 266.615 13.905C269.765 14.805 272.105 15.93 273.635 17.28C275.195 18.63 275.975 20.565 275.975 23.085C275.975 24.915 275.6 26.52 274.85 27.9C274.1 29.25 273.08 30.33 271.79 31.14C270.53 31.92 269.135 32.49 267.605 32.85C266.105 33.24 264.5 33.435 262.79 33.435C258.44 33.435 255.035 32.445 252.575 30.465C250.145 28.455 248.915 25.635 248.885 22.005H255.86C255.98 26.025 258.395 28.035 263.105 28.035C264.935 28.035 266.375 27.66 267.425 26.91C268.505 26.13 269.045 25.08 269.045 23.76C269.045 22.65 268.55 21.84 267.56 21.33C266.6 20.82 264.56 20.115 261.44 19.215C261.26 19.185 261.125 19.155 261.035 19.125C260.945 19.095 260.825 19.065 260.675 19.035C260.525 18.975 260.39 18.93 260.27 18.9C259.19 18.6 258.44 18.39 258.02 18.27C257.6 18.12 256.925 17.88 255.995 17.55C255.095 17.22 254.435 16.92 254.015 16.65C253.595 16.38 253.07 16.005 252.44 15.525C251.84 15.045 251.405 14.55 251.135 14.04C250.865 13.5 250.61 12.855 250.37 12.105C250.16 11.325 250.055 10.485 250.055 9.585C250.055 6.675 251.18 4.35 253.43 2.61C255.68 0.87 258.665 0 262.385 0C265.985 0 268.925 0.855001 271.205 2.565C273.485 4.245 274.655 6.795 274.715 10.215Z" fill="#F7F7F7"/>
</svg>
