<svg width="20" height="16" viewBox="0 0 20 16" fill="none" xmlns="http://www.w3.org/2000/svg">
<path d="M19.204 1.64103H0.696517C0.298507 1.64103 0 1.33333 0 0.820512C0 0.307692 0.298508 0 0.79602 0H19.204C19.602 0 20 0.307692 20 0.820512C20 1.33333 19.602 1.64103 19.204 1.64103ZM19.204 8.82051H0.696517C0.298507 8.82051 0 8.51282 0 8C0 7.48718 0.298508 7.17949 0.79602 7.17949H19.204C19.602 7.17949 20 7.48718 20 8C20 8.51282 19.602 8.82051 19.204 8.82051ZM19.204 16H0.696517C0.298507 16 0 15.6923 0 15.1795C0 14.6667 0.298508 14.359 0.79602 14.359H19.204C19.602 14.359 20 14.6667 20 15.1795C20 15.6923 19.602 16 19.204 16Z" fill="black"/>
</svg>
