<svg width="108" height="43" viewBox="0 0 108 43" fill="none" xmlns="http://www.w3.org/2000/svg">
<path d="M20.8091 -0.00439453V4.72931H13.0542V19.362H8.32054V4.72931H0.570312V-0.00439453H20.8091Z" fill="black"/>
<path d="M40.7592 36.7403C40.7592 36.8413 40.7638 36.9974 40.7592 37.1811C40.7454 37.6907 40.6903 39.9405 39.7169 41.1434C39.5379 41.3638 38.9777 42.3969 36.1311 42.3969C34.1155 42.3969 32.1044 42.3969 30.0888 42.3923C29.4369 42.3831 28.7895 42.3693 28.1375 42.3602C26.4662 42.3602 25.2679 41.9424 24.5516 41.1067C23.8308 40.2757 23.4727 38.9212 23.4727 37.0617C23.4772 31.35 23.4818 25.6522 23.4818 19.9451H23.4727V8.83398H28.2293V19.9451H28.2247V34.9084C28.2018 35.4226 28.2155 35.8588 28.2339 36.1893C28.266 36.7954 28.312 37.0158 28.4773 37.1811C28.7298 37.4336 29.0787 37.5025 29.0787 37.5025C29.1522 37.5163 29.2165 37.5208 29.2578 37.5254H30.1715C30.1715 37.5254 32.7794 37.5393 34.9327 37.5071C35.1623 37.5071 35.5709 37.4887 35.7913 37.2179C36.0117 36.9424 36.0255 36.4419 36.0255 36.396C36.0255 36.3271 36.0209 36.2766 36.0209 36.047C36.0163 35.8634 36.0209 35.7164 36.0209 35.6154C36.0117 33.8569 36.0025 32.0984 35.9933 30.3399H32.4029C35.1898 27.9249 37.9722 25.5099 40.7592 23.0948C40.7638 23.9947 40.7729 24.8946 40.7729 25.7991C40.7729 27.5806 40.7729 29.3482 40.7592 31.1021V36.7403Z" fill="#007CF7"/>
<path d="M28.2103 -0.00439453H23.4766V4.88542H28.2103V-0.00439453Z" fill="#007CF7"/>
<path d="M81.5278 -0.00439453V16.5061H76.886V13.5677H64.8336V37.4153C64.8336 39.1508 64.4158 40.4272 63.5802 41.2444C62.7446 42.0617 61.4498 42.4704 59.7005 42.4704C58.5205 42.4704 57.7583 42.2821 57.5288 42.2133C57.1293 42.0847 56.5324 41.8918 55.9401 41.3822C55.5866 41.0838 55.3616 40.7853 55.2193 40.5925C54.9438 40.2114 54.7739 39.8808 54.4525 39.238C54.2873 38.9074 54.1587 38.6274 54.0715 38.4345C52.5333 35.0782 50.9998 31.722 49.4617 28.3657C49.4434 28.3244 49.4204 28.2647 49.3837 28.1912C49.3561 28.1407 49.3378 28.1086 49.3148 28.0764C49.2367 27.9616 49.1311 27.9111 49.076 27.8836C49.0164 27.8514 48.9153 27.8147 48.7914 27.8056C48.7363 27.8056 48.6536 27.8055 48.5572 27.8285C48.369 27.879 48.2542 27.9938 48.2129 28.0351C47.9374 28.3106 47.9603 28.7284 47.9649 28.7927V42.3832H43.3047V28.1499C43.3047 26.419 43.7225 25.1425 44.5536 24.3207C45.3892 23.5034 46.6977 23.0948 48.4792 23.0948C49.1633 23.0948 49.7694 23.159 50.2974 23.2876C50.6233 23.3657 51.0917 23.4988 51.6426 23.8156C51.863 23.9442 52.3313 24.2243 52.7675 24.7293C53.0522 25.0553 53.2037 25.3399 53.3873 25.6935C53.5526 25.9965 53.5986 26.1389 53.9383 26.8827C54.0669 27.1674 54.1725 27.3969 54.2459 27.5484C56.4314 32.328 57.2487 34.1095 57.5471 34.7568C57.6114 34.8946 57.9879 35.7119 58.4975 36.8138C58.5389 36.9102 58.6582 37.1628 58.6996 37.2592C58.7041 37.2638 58.7087 37.2729 58.7133 37.2867C58.75 37.3556 58.8281 37.4979 58.9842 37.6035C59.1174 37.6953 59.2459 37.7183 59.2918 37.7229C59.3377 37.7321 59.4525 37.7412 59.5903 37.7045C59.6683 37.6861 59.728 37.654 59.7464 37.6402C59.8244 37.5989 59.8749 37.553 59.9025 37.5254C59.9209 37.5071 59.953 37.4796 59.9851 37.4336C59.9943 37.4199 60.0127 37.3969 60.0356 37.3602C60.0356 37.3602 60.0678 37.3051 60.0907 37.2316C60.1183 37.1535 60.1504 36.9928 60.1596 36.7771V34.7706H60.1413V-0.00439453H64.8336V8.83399H76.886V-0.00439453H81.5278Z" fill="black"/>
<path d="M104.353 -0.00439453V4.72931H96.5979V16.5107H91.8642V4.72931H84.1094V-0.00439453H104.353Z" fill="black"/>
<path d="M51.1733 6.75938C51.132 6.65378 51.0723 6.51144 50.9851 6.35074C50.9024 6.19923 50.7325 5.9008 50.4203 5.62073C50.2045 5.42789 50.0163 5.32689 49.8372 5.23047C49.727 5.17079 49.3505 4.97335 48.8087 4.84938C48.547 4.7897 48.3037 4.76673 48.2027 4.75755C48.0649 4.74378 47.9456 4.73459 47.8583 4.73C47.1742 4.73 46.4855 4.73 45.8014 4.73C45.0989 4.73 44.3964 4.73 43.6986 4.73C43.6021 4.73 43.4414 4.72084 43.244 4.72084C43.0557 4.72084 42.9134 4.73 42.8813 4.73C42.6701 4.73919 42.1329 4.74378 40.7738 4.73C40.1448 4.70246 39.6489 4.81265 39.3459 4.90448C38.5654 5.13864 37.8216 5.62533 37.5186 6.08906C37.2614 6.48392 37.1053 6.99817 37.0962 7.02572C36.986 7.40221 36.9538 7.73735 36.9492 7.9761C36.9217 9.4683 36.9354 9.97793 36.9354 9.97793C36.9446 10.5564 36.9492 10.9375 36.9492 11.4609C36.9492 12.3976 36.9309 12.6823 37.0365 13.1414C37.0594 13.2286 37.1604 13.6465 37.4175 14.1285C37.8721 14.9963 38.5241 15.5335 38.9649 15.8319C38.9649 15.8319 39.9244 16.4288 41.0447 16.4747C41.0585 16.4747 41.1503 16.4747 41.233 16.4839C41.3294 16.4839 41.4212 16.4931 41.5314 16.4931C41.5773 16.4931 41.6324 16.4931 41.7334 16.4977C41.7931 16.4977 41.8758 16.4977 41.9309 16.5023H47.1696C47.2706 16.5069 47.4084 16.5115 47.5691 16.5023C47.5691 16.5023 47.6196 16.5023 47.6701 16.4931C47.8859 16.4702 48.1981 16.4151 48.6664 16.2039C49.0016 16.0523 49.5204 15.8182 50.0484 15.3131C50.3973 14.9825 50.6315 14.6474 50.7738 14.4132C50.8243 14.3306 50.8657 14.2571 50.8932 14.2066C50.9345 14.1332 50.9713 14.0551 51.0126 13.9771C51.0447 13.9128 51.0723 13.8439 51.0998 13.7842C51.1274 13.7107 51.1549 13.6419 51.1825 13.5684C50.9713 13.5684 50.7601 13.5684 50.5489 13.5684C48.694 13.5684 46.8344 13.5684 44.9795 13.5684V8.83469H56.1411C56.1411 9.5188 56.1411 10.0744 56.1411 10.4463C56.1457 11.3875 56.1549 11.7502 56.1411 12.393C56.1274 13.0542 56.0998 13.5776 56.0861 13.7061C56.008 14.4867 55.6407 17.2552 53.4782 19.0872C52.2477 20.1294 50.7371 20.6116 50.5075 20.685C49.6444 20.9559 48.772 21.0707 48.2073 21.1442C47.4589 21.2452 46.8207 21.2819 46.3523 21.3003H42.3349C39.0062 21.3003 36.4855 20.5335 34.7729 19C33.0649 17.4665 32.2109 15.3039 32.2109 12.5124V8.78879C32.2109 5.99723 33.0649 3.8347 34.7729 2.30118C36.4855 0.767662 39.0062 0.00089907 42.3349 0.00089907H46.3523C47.9869 -0.0174664 49.2724 0.248841 50.131 0.496775C50.5534 0.620742 51.0355 0.758484 51.6324 1.04315C52.1604 1.29567 53.4598 1.93387 54.5479 3.36178C55.5488 4.67032 55.8473 5.96967 55.9621 6.47472C55.9896 6.60328 56.0126 6.7089 56.0218 6.78236C54.4056 6.77777 52.7894 6.76857 51.1687 6.76398L51.1733 6.75938Z" fill="black"/>
<path d="M9.44912 37.4706C9.04049 37.4706 8.75583 37.3742 8.59054 37.1814C8.42984 36.9885 8.34721 36.6579 8.34721 36.1896C8.33344 30.5744 8.31965 24.973 8.30588 19.3623H3.59513C3.59513 25.2622 3.59053 31.1575 3.58594 37.062C3.58594 38.9215 3.94408 40.276 4.66493 41.107C5.38118 41.9426 6.57953 42.3605 8.25078 42.3605C12.4794 42.3605 16.7035 42.3559 20.9321 42.3513V37.4614C17.1075 37.4614 13.2783 37.466 9.44912 37.4706Z" fill="black"/>
<path d="M72.1675 25.5331C72.1675 26.4238 72.1675 27.3146 72.1583 28.2007H81.5018V32.9344H72.1583C72.1629 34.0271 72.1629 35.1199 72.1675 36.2172C72.1675 36.6855 72.2502 37.0161 72.4109 37.209C72.5761 37.4018 72.8608 37.4982 73.2694 37.4982C77.0986 37.4936 80.9278 37.489 84.7525 37.489V42.3788C80.5238 42.3834 76.2997 42.388 72.0711 42.388C70.3998 42.388 69.2015 41.9702 68.4852 41.1345C67.7644 40.3035 67.4062 38.9491 67.4062 37.0896C67.4108 35.0189 67.4108 32.9481 67.4108 30.8774C67.4108 28.8067 67.4108 26.736 67.4062 24.6607C67.4062 22.8012 67.7644 21.4468 68.4852 20.6157C69.2015 19.7801 70.3998 19.3623 72.0711 19.3623C76.2997 19.3623 80.5238 19.3669 84.7525 19.3715V24.2613C80.9278 24.2613 77.0986 24.2567 73.2694 24.2521C72.8608 24.2521 72.5761 24.3485 72.4109 24.5413C72.2502 24.7342 72.1675 25.0648 72.1675 25.5331Z" fill="black"/>
<path d="M107.417 33.8756V35.2117C107.417 40.051 104.681 42.4706 99.2124 42.4706H95.3052C92.6651 42.4706 90.6817 41.7957 89.3364 40.4366C88.1151 39.197 87.4494 37.4293 87.3438 35.1428H92.2795C92.3943 35.8499 92.6514 36.4055 93.06 36.8141C93.6339 37.3926 94.5752 37.6773 95.8929 37.6773H98.4043C99.8965 37.6773 100.93 37.4661 101.504 37.0391C102.068 36.6213 102.358 35.9785 102.367 35.0969C102.362 35.0235 102.358 34.9225 102.33 34.7985C102.316 34.7296 102.247 34.4403 102.018 34.1419C101.917 34.0087 101.82 33.9261 101.797 33.9031C101.66 33.7883 101.526 33.7103 101.384 33.6506C100.907 33.4394 100.337 33.3706 100.195 33.3568C99.7864 33.3109 99.5246 33.3063 99.1895 33.2879C99.1665 33.2879 98.6752 33.2558 97.6927 33.1869C95.1582 33.0124 95.1766 33.0033 94.4328 32.9619C94.1068 32.9436 93.7854 32.9206 93.464 32.9022C93.1105 32.8793 92.7891 32.8655 92.3575 32.8104C91.9718 32.7645 91.7928 32.7232 91.6459 32.6819C91.577 32.6589 91.3933 32.6038 91.15 32.4982C90.9663 32.4156 90.521 32.1998 90.0297 31.8003C89.4833 31.3549 89.1436 30.9004 88.9783 30.6617C88.1197 29.4404 87.9773 27.8885 87.959 27.1538C87.9544 27.0758 87.9544 27.0115 87.9544 26.9518V26.1529C87.9544 25.1795 88.0875 24.2934 88.363 23.4945C88.6385 22.6956 89.0609 21.984 89.6348 21.3503C90.2042 20.7213 90.9847 20.2301 91.9856 19.8811C92.9774 19.5368 94.1436 19.3623 95.4796 19.3623H98.0049C99.4833 19.3623 100.714 19.5 101.683 19.7847C102.651 20.0647 103.4 20.5101 103.914 21.107C104.437 21.7085 104.796 22.3926 104.988 23.1548C105.186 23.9169 105.287 24.8673 105.287 26.0106V26.9289H100.411V26.2631C100.411 25.5285 100.2 24.9959 99.7772 24.6607C99.3548 24.3209 98.5559 24.1557 97.3851 24.1557H96.1592C95.8699 24.1694 95.622 24.1832 95.4383 24.197C94.8139 24.2475 94.6119 24.298 94.4604 24.3439C94.3456 24.3807 94.2032 24.4266 94.0379 24.5184C93.9002 24.5919 93.5926 24.7663 93.3401 25.1336C93.1013 25.4826 93.0462 25.8178 93.0324 25.905C93.0187 25.9739 93.0141 26.0473 93.0141 26.4146V26.4651C93.0141 26.4973 93.0141 26.5524 93.0187 26.6304C93.0187 26.6534 93.0187 26.6993 93.0279 26.7544C93.037 26.8187 93.0462 26.9243 93.0738 27.0345C93.1243 27.2273 93.2161 27.365 93.285 27.4798C93.2942 27.4982 93.3171 27.5304 93.3446 27.5717C93.3997 27.6589 93.4962 27.7829 93.6431 27.8976C93.9461 28.141 94.6991 28.2374 94.8414 28.2558C95.4108 28.3201 95.8378 28.343 95.8378 28.343C96.4025 28.3705 96.9627 28.4348 97.5274 28.4762C98.9461 28.5864 100.154 28.7195 100.581 28.7654C102.215 28.9537 102.757 29.073 103.124 29.1603C103.841 29.3393 104.199 29.4266 104.662 29.6607C105.714 30.2025 106.306 30.9876 106.568 31.3412C106.903 31.7911 107.068 32.1492 107.151 32.3512C107.344 32.8242 107.39 33.1686 107.403 33.2558C107.431 33.5083 107.426 33.7195 107.417 33.8756Z" fill="black"/>
</svg>
