<svg width="31" height="30" viewBox="0 0 31 30" fill="none" xmlns="http://www.w3.org/2000/svg">
<path d="M17.042 0C18.7294 0.00449989 19.5859 0.0134997 20.3254 0.0344992L20.6163 0.0449989C20.9523 0.0569986 21.2838 0.0719982 21.6843 0.0899977C23.2802 0.164996 24.3691 0.41699 25.3246 0.787481C26.3145 1.16847 27.1485 1.68446 27.9825 2.51694C28.7455 3.26652 29.3357 4.17361 29.7119 5.17487C30.0824 6.13035 30.3343 7.21932 30.4093 8.81679C30.4273 9.21578 30.4423 9.54727 30.4543 9.88476L30.4633 10.1758C30.4858 10.9137 30.4948 11.7702 30.4978 13.4577L30.4993 14.5766V16.5416C30.503 17.6357 30.4915 18.7298 30.4648 19.8235L30.4558 20.1145C30.4438 20.452 30.4288 20.7835 30.4108 21.1825C30.3358 22.7799 30.0809 23.8674 29.7119 24.8244C29.3357 25.8257 28.7455 26.7328 27.9825 27.4823C27.2329 28.2454 26.3258 28.8356 25.3246 29.2118C24.3691 29.5823 23.2802 29.8343 21.6843 29.9093L20.6163 29.9543L20.3254 29.9633C19.5859 29.9843 18.7294 29.9948 17.042 29.9978L15.9231 29.9993H13.9597C12.8651 30.0031 11.7706 29.9916 10.6763 29.9648L10.3854 29.9558C10.0293 29.9423 9.6733 29.9268 9.31741 29.9093C7.72149 29.8343 6.63254 29.5823 5.67559 29.2118C4.67489 28.8354 3.76835 28.2452 3.01923 27.4823C2.25568 26.7329 1.66496 25.8258 1.28831 24.8244C0.917832 23.8689 0.665845 22.7799 0.590849 21.1825L0.545851 20.1145L0.538351 19.8235C0.510702 18.7298 0.498201 17.6357 0.500853 16.5416V13.4577C0.496702 12.3636 0.507702 11.2695 0.533852 10.1758L0.544351 9.88476C0.55635 9.54727 0.57135 9.21578 0.589349 8.81679C0.664345 7.21932 0.916332 6.13185 1.28681 5.17487C1.66434 4.1732 2.2561 3.26608 3.02073 2.51694C3.76942 1.75428 4.67542 1.16408 5.67559 0.787481C6.63254 0.41699 7.71999 0.164996 9.31741 0.0899977C9.71639 0.0719982 10.0494 0.0569986 10.3854 0.0449989L10.6763 0.035999C11.7701 0.00934883 12.8641 -0.00215199 13.9582 0.00149985L17.042 0ZM15.5001 7.49982C13.5111 7.49982 11.6035 8.28998 10.1971 9.69646C8.79061 11.103 8.00047 13.0106 8.00047 14.9996C8.00047 16.9887 8.79061 18.8963 10.1971 20.3028C11.6035 21.7093 13.5111 22.4995 15.5001 22.4995C17.4891 22.4995 19.3967 21.7093 20.8031 20.3028C22.2096 18.8963 22.9997 16.9887 22.9997 14.9996C22.9997 13.0106 22.2096 11.103 20.8031 9.69646C19.3967 8.28998 17.4891 7.49982 15.5001 7.49982ZM15.5001 10.4997C16.091 10.4996 16.6762 10.6159 17.2221 10.842C17.7681 11.068 18.2642 11.3994 18.6821 11.8172C19.1 12.235 19.4316 12.731 19.6578 13.2769C19.884 13.8228 20.0005 14.408 20.0006 14.9989C20.0007 15.5898 19.8844 16.175 19.6584 16.721C19.4323 17.267 19.101 17.7631 18.6832 18.181C18.2654 18.5989 17.7694 18.9305 17.2235 19.1567C16.6776 19.3829 16.0925 19.4994 15.5016 19.4995C14.3082 19.4995 13.1636 19.0254 12.3198 18.1815C11.4759 17.3376 11.0018 16.1931 11.0018 14.9996C11.0018 13.8062 11.4759 12.6616 12.3198 11.8177C13.1636 10.9738 14.3082 10.4997 15.5016 10.4997M23.3762 5.24987C22.8789 5.24987 22.4021 5.44741 22.0504 5.79903C21.6988 6.15066 21.5013 6.62756 21.5013 7.12483C21.5013 7.6221 21.6988 8.099 22.0504 8.45062C22.4021 8.80224 22.8789 8.99978 23.3762 8.99978C23.8735 8.99978 24.3503 8.80224 24.702 8.45062C25.0536 8.099 25.2511 7.6221 25.2511 7.12483C25.2511 6.62756 25.0536 6.15066 24.702 5.79903C24.3503 5.44741 23.8735 5.24987 23.3762 5.24987Z" fill="white"/>
</svg>
