<svg width="26" height="20" viewBox="0 0 26 20" fill="none" xmlns="http://www.w3.org/2000/svg">
<path d="M25.4661 1.5594C25.1986 3.25678 23.3898 14.7891 22.8038 18.4085C22.8049 18.6795 22.7351 18.9462 22.601 19.1832C22.467 19.4202 22.2732 19.6196 22.0381 19.7623C21.803 19.905 21.5345 19.9863 21.2582 19.9984C20.9819 20.0105 20.707 19.953 20.4599 19.8313C19.6905 19.5668 18.9651 19.1925 18.3071 18.7205C16.2817 17.3976 14.2181 16.137 12.3073 14.6643C11.3901 13.9529 11.3774 13.2914 12.3073 12.5051C14.5289 10.52 16.7077 8.48936 18.8421 6.41447C19.1224 6.13985 19.7593 5.52831 19.4026 5.16634C19.0459 4.80444 18.3071 5.31611 17.9505 5.55329C14.9697 7.5003 11.9634 9.43479 9.03348 11.4318C8.54507 11.7926 7.97362 12.0302 7.36944 12.1238C6.76525 12.2174 6.14685 12.164 5.56866 11.9684C4.1674 11.5566 2.77893 11.1072 1.40317 10.6579C0.842662 10.4832 -0.635022 9.89662 2.10377 8.79827C9.0972 5.95264 16.2308 3.09454 23.2496 0.261376C24.9566 -0.375146 25.67 0.186491 25.4661 1.5594Z" fill="white"/>
</svg>
