<svg width="25" height="18" viewBox="0 0 25 18" fill="none" xmlns="http://www.w3.org/2000/svg">
<path d="M10 12.75L16.4875 9L10 5.25V12.75ZM24.45 2.9625C24.6125 3.55 24.725 4.3375 24.8 5.3375C24.8875 6.3375 24.925 7.2 24.925 7.95L25 9C25 11.7375 24.8 13.75 24.45 15.0375C24.1375 16.1625 23.4125 16.8875 22.2875 17.2C21.7 17.3625 20.625 17.475 18.975 17.55C17.35 17.6375 15.8625 17.675 14.4875 17.675L12.5 17.75C7.2625 17.75 4 17.55 2.7125 17.2C1.5875 16.8875 0.8625 16.1625 0.55 15.0375C0.3875 14.45 0.275 13.6625 0.2 12.6625C0.1125 11.6625 0.0749999 10.8 0.0749999 10.05L0 9C0 6.2625 0.2 4.25 0.55 2.9625C0.8625 1.8375 1.5875 1.1125 2.7125 0.8C3.3 0.6375 4.375 0.525 6.025 0.45C7.65 0.3625 9.1375 0.325 10.5125 0.325L12.5 0.25C17.7375 0.25 21 0.45 22.2875 0.8C23.4125 1.1125 24.1375 1.8375 24.45 2.9625Z" fill="white"/>
</svg>
